<svg width="8" height="6" viewBox="0 0 8 6" fill="none" xmlns="http://www.w3.org/2000/svg">
<path d="M0 2.9999C0 2.83176 0.124949 2.69279 0.287062 2.6708L0.332131 2.66777L6.97474 2.66777C7.15817 2.66777 7.30687 2.81647 7.30687 2.9999C7.30687 3.16805 7.18192 3.30701 7.01981 3.329L6.97474 3.33203L0.332131 3.33203C0.1487 3.33203 0 3.18333 0 2.9999Z" fill="white"/>
<path d="M4.0613 0.567438C3.93132 0.438012 3.93086 0.227719 4.06029 0.0977354C4.17795 -0.020432 4.36244 -0.0315485 4.49267 0.0646458L4.52999 0.0967236L7.20918 2.7644C7.3277 2.88241 7.33848 3.06757 7.24152 3.19779L7.2092 3.23509L4.53001 5.90321C4.40004 6.03264 4.18975 6.03221 4.06031 5.90223C3.94264 5.78408 3.9323 5.59954 4.02905 5.46972L4.06128 5.43253L6.50401 2.99962L4.0613 0.567438Z" fill="white"/>
</svg>
